<svg width="934" height="295" viewBox="0 0 934 295" fill="none" xmlns="http://www.w3.org/2000/svg">
<path d="M96.9062 176.992C101.073 176.732 105.24 176.536 109.406 176.406C113.703 176.146 118 175.82 122.297 175.43C122.427 173.997 122.622 172.174 122.883 169.961C123.273 167.747 123.664 165.469 124.055 163.125C124.445 160.781 124.771 158.503 125.031 156.289C125.292 154.076 125.552 152.318 125.812 151.016L127.766 138.516C123.599 138.776 119.302 139.102 114.875 139.492C110.578 139.883 106.346 140.273 102.18 140.664C101.919 143.008 101.529 145.807 101.008 149.062C100.617 152.188 100.161 155.443 99.6406 158.828C99.1198 162.214 98.599 165.534 98.0781 168.789C97.6875 171.914 97.2969 174.648 96.9062 176.992ZM201.398 240.273C196.971 238.841 192.284 237.669 187.336 236.758C182.518 235.716 177.635 234.87 172.688 234.219C172.688 240.208 172.688 246.198 172.688 252.188C172.818 258.047 173.208 263.906 173.859 269.766C171.385 269.505 169.042 269.31 166.828 269.18C164.615 269.049 162.401 268.984 160.188 268.984C157.062 268.984 152.831 269.049 147.492 269.18C142.154 269.31 136.62 269.505 130.891 269.766C125.161 270.026 119.628 270.352 114.289 270.742C108.951 271.133 104.654 271.589 101.398 272.109C103.612 265.469 105.565 258.828 107.258 252.188C109.081 245.417 110.708 238.646 112.141 231.875H91.8281V265.859L83.8203 265.469C80.3047 265.339 75.6823 265.404 69.9531 265.664C64.3542 265.794 58.4948 266.12 52.375 266.641C46.2552 267.031 40.3307 267.552 34.6016 268.203C28.8724 268.724 24.1849 269.245 20.5391 269.766C22.362 264.167 24.0547 258.698 25.6172 253.359C27.1797 247.891 28.5469 242.292 29.7188 236.562C24.5104 237.604 19.4974 238.841 14.6797 240.273C9.86198 241.576 5.04427 243.008 0.226562 244.57C1.65885 240.534 3.09115 235.391 4.52344 229.141C5.95573 222.76 7.25781 216.185 8.42969 209.414C9.60156 202.643 10.6432 196.068 11.5547 189.688C12.4661 183.307 13.0521 178.034 13.3125 173.867C17.8698 174.909 22.4271 175.625 26.9844 176.016C31.5417 176.406 36.2292 176.732 41.0469 176.992C41.1771 175.82 41.4375 174.193 41.8281 172.109C42.2188 170.026 42.6094 167.943 43 165.859C43.3906 163.646 43.7161 161.497 43.9766 159.414C44.3672 157.331 44.6927 155.703 44.9531 154.531L45.7344 145.742C39.4844 146.784 33.3646 148.021 27.375 149.453C21.5156 150.755 15.6562 152.188 9.79688 153.75C12.401 145.677 14.7448 136.042 16.8281 124.844C19.0417 113.516 20.1484 100.755 20.1484 86.5625V84.2188C31.0859 85.7812 42.2839 86.5625 53.7422 86.5625C54.5234 78.099 55.1094 69.7005 55.5 61.3672C56.0208 53.0339 56.2812 44.6354 56.2812 36.1719C59.7969 36.5625 63.3776 36.8229 67.0234 36.9531C70.7995 36.9531 74.5104 36.9531 78.1562 36.9531C80.5 36.9531 83.8854 36.9531 88.3125 36.9531C92.8698 36.8229 97.6224 36.7578 102.57 36.7578C107.518 36.6276 112.206 36.5625 116.633 36.5625C121.19 36.4323 124.641 36.3021 126.984 36.1719C123.729 43.4635 120.799 51.3411 118.195 59.8047C115.721 68.2682 113.443 76.7969 111.359 85.3906C115.526 85 119.628 84.6745 123.664 84.4141C127.701 84.1536 131.737 83.6979 135.773 83.0469C136.555 76.0156 137.206 69.1146 137.727 62.3438C138.247 55.4427 138.508 48.8672 138.508 42.6172C138.508 40.7943 138.508 38.9714 138.508 37.1484C138.508 35.1953 138.378 33.4375 138.117 31.875C142.935 31.875 148.664 31.6797 155.305 31.2891C161.945 30.8984 168.651 30.4427 175.422 29.9219C182.323 29.2708 188.898 28.6198 195.148 27.9688C201.529 27.1875 206.802 26.4714 210.969 25.8203C207.714 34.2839 204.784 42.8125 202.18 51.4062C199.576 59.8698 197.167 68.5286 194.953 77.3828C199.771 76.3411 204.458 75.2995 209.016 74.2578C213.573 73.2161 218 71.9792 222.297 70.5469C220.734 76.9271 219.367 83.4375 218.195 90.0781C217.023 96.5885 215.982 102.904 215.07 109.023C214.159 115.013 213.378 120.677 212.727 126.016C212.206 131.224 211.88 135.716 211.75 139.492C206.932 138.841 202.18 138.385 197.492 138.125C192.935 137.865 188.247 137.734 183.43 137.734C183.169 138.906 182.844 140.794 182.453 143.398C182.062 145.872 181.607 148.672 181.086 151.797C180.695 154.922 180.24 158.177 179.719 161.562C179.328 164.818 179.068 167.812 178.938 170.547C184.667 169.766 190.331 168.854 195.93 167.812C201.659 166.641 207.323 165.469 212.922 164.297C211.49 168.984 210.057 174.323 208.625 180.312C207.323 186.172 206.151 192.422 205.109 199.062C204.068 205.573 203.156 212.344 202.375 219.375C201.724 226.406 201.398 233.372 201.398 240.273ZM451.203 7.85156C449.51 12.0182 448.013 16.7708 446.711 22.1094C445.409 27.4479 444.237 33.0469 443.195 38.9062C442.284 44.7656 441.503 50.8203 440.852 57.0703C440.201 63.1901 439.68 69.1146 439.289 74.8438C438.247 88.5156 437.596 102.578 437.336 117.031C437.336 123.411 437.401 129.987 437.531 136.758C437.661 143.398 437.727 150.169 437.727 157.07C437.727 168.008 437.336 179.01 436.555 190.078C435.773 201.146 434.081 211.758 431.477 221.914C428.872 232.07 425.031 241.576 419.953 250.43C414.875 259.284 407.974 266.966 399.25 273.477C390.656 279.987 379.979 285.13 367.219 288.906C354.589 292.682 339.289 294.57 321.32 294.57C307.648 294.57 295.799 292.878 285.773 289.492C275.878 286.237 267.674 281.81 261.164 276.211C254.784 270.482 250.031 263.906 246.906 256.484C243.911 248.932 242.414 240.99 242.414 232.656C242.414 226.406 243.716 220.547 246.32 215.078C248.924 209.609 252.375 204.922 256.672 201.016C261.099 196.979 266.112 193.854 271.711 191.641C277.44 189.297 283.299 188.125 289.289 188.125C296.971 188.125 304.393 190.143 311.555 194.18C318.716 198.216 325.031 204.727 330.5 213.711C329.068 213.451 327.635 213.255 326.203 213.125C324.901 212.995 323.664 212.93 322.492 212.93C313.117 212.93 308.43 216.966 308.43 225.039C308.43 228.815 310.122 231.875 313.508 234.219C317.023 236.562 321.711 237.734 327.57 237.734C334.732 237.734 340.461 235.846 344.758 232.07C349.185 228.294 352.57 223.542 354.914 217.812C357.258 212.083 358.82 205.833 359.602 199.062C360.383 192.161 360.773 185.586 360.773 179.336V170.938C358.299 173.542 355.37 175.625 351.984 177.188C348.599 178.62 345.148 179.792 341.633 180.703C338.117 181.484 334.732 182.005 331.477 182.266C328.221 182.526 325.487 182.656 323.273 182.656C315.461 182.656 307.583 181.615 299.641 179.531C291.828 177.448 284.667 173.542 278.156 167.812C271.776 162.083 266.503 154.141 262.336 143.984C258.169 133.698 255.826 120.417 255.305 104.141C255.305 103.49 255.24 101.016 255.109 96.7188C255.109 92.2917 254.849 86.888 254.328 80.5078C253.938 73.9974 253.221 66.901 252.18 59.2188C251.268 51.5365 249.901 43.9844 248.078 36.5625C246.385 29.1406 244.172 22.3047 241.438 16.0547C238.833 9.67448 235.578 4.66146 231.672 1.01562C245.474 3.35938 257.779 5.05208 268.586 6.09375C279.523 7.00521 289.094 7.46094 297.297 7.46094C303.677 7.46094 309.211 7.33073 313.898 7.07031C318.716 6.67969 322.688 6.22396 325.812 5.70312C329.458 5.18229 332.583 4.53125 335.188 3.75C334.536 9.08854 333.82 14.7526 333.039 20.7422C332.388 26.6016 331.737 32.5911 331.086 38.7109C330.565 44.7005 330.109 50.7552 329.719 56.875C329.458 62.9948 329.328 68.9193 329.328 74.6484C329.328 81.1589 329.589 87.2786 330.109 93.0078C330.63 98.6068 331.477 103.555 332.648 107.852C333.951 112.018 335.578 115.339 337.531 117.812C339.615 120.156 342.154 121.328 345.148 121.328C348.794 121.328 351.854 119.375 354.328 115.469C356.932 111.432 359.016 106.224 360.578 99.8438C362.141 93.3333 363.247 86.0417 363.898 77.9688C364.549 69.8958 364.875 61.8229 364.875 53.75C364.875 44.375 364.484 35.4557 363.703 26.9922C363.052 18.3984 362.206 11.4974 361.164 6.28906C363.508 7.20052 366.568 7.91667 370.344 8.4375C373.599 9.08854 377.831 9.60938 383.039 10C388.378 10.3906 394.953 10.5859 402.766 10.5859C409.016 10.5859 416.112 10.3906 424.055 10C432.128 9.60938 441.177 8.89323 451.203 7.85156ZM695.148 288.125C686.685 287.474 678.742 287.018 671.32 286.758C664.029 286.628 657.258 286.562 651.008 286.562C638.768 286.562 628.547 286.888 620.344 287.539C612.141 288.32 605.435 289.102 600.227 289.883C594.107 290.794 589.224 291.836 585.578 293.008C586.099 288.971 586.62 285.195 587.141 281.68C587.661 278.164 588.052 274.779 588.312 271.523C588.703 268.138 588.964 264.818 589.094 261.562C589.354 258.177 589.484 254.661 589.484 251.016C589.484 236.693 588.898 224.779 587.727 215.273C586.685 205.768 585.122 197.826 583.039 191.445C580.956 185.065 578.417 179.922 575.422 176.016C572.427 172.109 569.107 168.594 565.461 165.469C565.201 171.328 565.005 176.992 564.875 182.461C564.745 187.93 564.68 193.724 564.68 199.844C564.68 205.833 564.81 212.083 565.07 218.594C565.331 225.104 565.786 232.005 566.438 239.297C567.089 246.589 568.065 254.401 569.367 262.734C570.669 270.938 572.297 279.857 574.25 289.492C574.12 288.971 572.427 288.385 569.172 287.734C565.917 287.083 561.555 286.497 556.086 285.977C550.617 285.456 544.302 285.065 537.141 284.805C530.109 284.414 522.753 284.219 515.07 284.219C505.044 284.219 495.018 284.544 484.992 285.195C474.966 285.977 465.917 287.409 457.844 289.492C460.969 285.456 463.768 280.378 466.242 274.258C468.846 268.008 471.125 261.172 473.078 253.75C475.031 246.328 476.659 238.516 477.961 230.312C479.393 222.109 480.63 214.036 481.672 206.094C484.016 187.474 485.578 167.617 486.359 146.523C486.359 141.315 486.359 134.74 486.359 126.797C486.49 118.854 486.359 110.195 485.969 100.82C485.708 91.4453 485.188 81.8099 484.406 71.9141C483.755 62.0182 482.583 52.513 480.891 43.3984C479.328 34.2839 477.245 25.9505 474.641 18.3984C472.036 10.8464 468.716 4.79167 464.68 0.234375C474.055 1.66667 483.169 2.64323 492.023 3.16406C500.878 3.55469 508.43 3.75 514.68 3.75C520.148 3.75 525.161 3.61979 529.719 3.35938C534.406 3.09896 539.029 2.83854 543.586 2.57812C548.143 2.31771 552.896 2.05729 557.844 1.79688C562.792 1.53646 568.26 1.40625 574.25 1.40625C582.453 1.40625 590.721 1.86198 599.055 2.77344C607.388 3.55469 615.331 5.05208 622.883 7.26562C630.565 9.34896 637.661 12.2786 644.172 16.0547C650.812 19.7005 656.542 24.388 661.359 30.1172C666.307 35.7161 670.148 42.487 672.883 50.4297C675.747 58.3724 677.18 67.6172 677.18 78.1641C677.18 84.0234 676.398 89.8828 674.836 95.7422C673.404 101.602 670.995 107.396 667.609 113.125C664.224 118.724 659.797 124.128 654.328 129.336C648.99 134.414 642.414 139.102 634.602 143.398C643.846 147.174 650.812 151.862 655.5 157.461C660.318 163.06 663.768 169.44 665.852 176.602C667.935 183.763 669.042 191.576 669.172 200.039C669.432 208.372 669.693 217.096 669.953 226.211C670.474 235.977 671.711 245.026 673.664 253.359C674.445 256.875 675.422 260.456 676.594 264.102C677.896 267.747 679.393 271.133 681.086 274.258C682.909 277.383 684.927 280.182 687.141 282.656C689.484 285.13 692.154 286.953 695.148 288.125ZM565.461 119.766C568.326 117.682 571.516 115.078 575.031 111.953C578.677 108.698 581.997 105.182 584.992 101.406C588.117 97.5 590.721 93.3984 592.805 89.1016C594.888 84.8047 595.93 80.5078 595.93 76.2109C595.93 72.0443 594.693 68.6589 592.219 66.0547C589.875 63.4505 587.206 62.1484 584.211 62.1484C580.044 62.1484 576.724 64.1016 574.25 68.0078C571.776 71.7839 569.823 76.276 568.391 81.4844C567.089 86.6927 566.177 91.9661 565.656 97.3047C565.266 102.513 565.07 106.549 565.07 109.414C565.07 110.977 565.07 112.669 565.07 114.492C565.07 116.185 565.201 117.943 565.461 119.766ZM933.43 287.344C925.357 286.302 917.544 285.586 909.992 285.195C902.57 284.805 895.018 284.609 887.336 284.609C866.633 284.609 845.409 286.628 823.664 290.664C824.445 287.539 825.292 284.805 826.203 282.461C827.245 279.987 828.156 277.318 828.938 274.453C829.719 271.458 830.37 268.008 830.891 264.102C831.411 260.195 831.672 255.182 831.672 249.062C831.672 242.812 831.216 236.888 830.305 231.289C829.393 225.56 828.026 220.547 826.203 216.25C824.38 211.823 822.102 208.307 819.367 205.703C816.763 203.099 813.703 201.797 810.188 201.797C806.281 201.797 802.961 202.969 800.227 205.312C797.622 207.656 795.474 210.846 793.781 214.883C792.219 218.919 791.047 223.542 790.266 228.75C789.615 233.958 789.289 239.492 789.289 245.352C789.289 251.211 789.615 256.289 790.266 260.586C791.047 264.753 791.893 268.398 792.805 271.523C793.846 274.648 794.823 277.448 795.734 279.922C796.646 282.266 797.297 284.609 797.688 286.953C788.703 285.911 779.849 285.13 771.125 284.609C762.531 284.089 753.938 283.828 745.344 283.828C736.75 283.828 728.091 284.089 719.367 284.609C710.773 285.13 701.854 285.911 692.609 286.953C700.682 263.516 707.714 240.273 713.703 217.227C719.823 194.18 725.031 171.003 729.328 147.695C733.625 124.388 737.076 100.82 739.68 76.9922C742.414 53.1641 744.432 28.75 745.734 3.75C755.37 5.05208 765.917 6.02865 777.375 6.67969C788.964 7.20052 800.812 7.46094 812.922 7.46094C823.208 7.46094 833.169 7.20052 842.805 6.67969C852.57 6.15885 861.555 5.05208 869.758 3.35938C870.669 28.2292 873.013 52.7083 876.789 76.7969C880.565 100.885 885.253 124.779 890.852 148.477C896.581 172.044 903.091 195.417 910.383 218.594C917.674 241.641 925.357 264.557 933.43 287.344ZM824.055 135.781C823.794 133.307 823.013 129.661 821.711 124.844C820.539 120.677 818.781 115.208 816.438 108.438C814.094 101.536 810.643 92.6823 806.086 81.875C805.044 88.6458 803.872 94.7005 802.57 100.039C801.268 105.247 800.031 110 798.859 114.297C797.688 118.464 796.646 122.305 795.734 125.82C794.953 129.336 794.562 132.656 794.562 135.781C794.562 142.292 796.06 147.37 799.055 151.016C802.18 154.531 805.63 156.289 809.406 156.289C813.443 156.289 816.828 154.336 819.562 150.43C822.297 146.523 823.794 141.641 824.055 135.781Z" fill="url(#paint0_linear_1_2)"/>
<defs>
<linearGradient id="paint0_linear_1_2" x1="-7" y1="-210.792" x2="844.498" y2="508.677" gradientUnits="userSpaceOnUse">
<stop offset="0.333708" stop-color="#6969C4"/>
<stop offset="0.55439" stop-color="#DF30AA"/>
<stop offset="0.855243" stop-color="#ECA829"/>
</linearGradient>
</defs>
</svg>
