<?xml version="1.0" standalone="no"?>
<!DOCTYPE svg PUBLIC "-//W3C//DTD SVG 20010904//EN"
 "http://www.w3.org/TR/2001/REC-SVG-20010904/DTD/svg10.dtd">
<svg version="1.0" xmlns="http://www.w3.org/2000/svg"
 width="1868.000000pt" height="1868.000000pt" viewBox="0 0 1868.000000 1868.000000"
 preserveAspectRatio="xMidYMid meet">
<metadata>
Created by potrace 1.14, written by Peter Selinger 2001-2017
</metadata>
<g transform="translate(0.000000,1868.000000) scale(0.100000,-0.100000)"
fill="#000000" stroke="none">
<path d="M9307 12283 c-4 -3 4 -18 16 -34 33 -41 57 -78 59 -86 0 -5 11 -24
22 -43 19 -30 46 -84 51 -100 1 -3 7 -17 13 -33 18 -42 51 -145 73 -222 39
-138 49 -186 79 -360 46 -272 50 -309 75 -655 35 -484 40 -1449 10 -1825 -2
-22 -6 -83 -10 -135 -8 -123 -12 -164 -19 -225 -3 -27 -8 -82 -11 -121 -3 -39
-7 -80 -10 -92 -2 -12 -6 -47 -10 -79 -3 -32 -8 -71 -10 -88 -2 -16 -7 -50
-10 -75 -3 -25 -7 -56 -10 -70 -2 -14 -6 -45 -9 -70 -2 -25 -7 -56 -10 -70 -3
-14 -8 -41 -11 -60 -2 -19 -7 -46 -10 -60 -5 -22 -10 -56 -20 -127 -2 -12 -6
-36 -10 -53 -4 -17 -8 -41 -10 -53 -1 -12 -12 -67 -24 -122 -29 -132 -26 -119
-50 -210 -12 -44 -23 -87 -25 -95 -10 -37 -59 -188 -71 -215 -7 -16 -25 -61
-41 -100 -35 -87 -99 -210 -130 -252 -35 -47 -31 -53 26 -38 28 7 53 14 55 14
3 1 6 1 8 2 1 0 11 2 22 3 20 3 92 15 130 22 81 16 253 31 450 40 168 8 666 8
820 0 250 -12 332 -17 370 -21 22 -3 63 -7 91 -9 69 -7 146 -16 164 -21 8 -3
33 -7 54 -11 22 -3 50 -10 63 -15 14 -5 26 -9 28 -9 6 0 -1 58 -13 110 -6 25
-13 61 -16 80 -3 19 -8 47 -11 63 -6 32 -11 59 -19 107 -3 19 -8 49 -11 65
-11 61 -34 201 -39 240 -2 22 -7 56 -10 75 -3 19 -8 60 -10 90 -3 30 -8 78
-11 105 -6 46 -9 76 -20 240 -14 192 -17 305 -18 620 0 457 5 665 18 665 14 0
144 -135 192 -200 138 -186 214 -444 258 -880 27 -270 27 -803 0 -1045 -1 -16
-6 -57 -9 -90 -3 -33 -8 -71 -11 -84 -4 -24 -14 -92 -20 -149 -2 -18 -6 -46
-10 -62 -5 -25 -4 -28 12 -25 10 3 38 9 63 16 85 20 102 24 170 34 19 2 46 7
60 10 14 3 50 8 80 11 30 3 66 7 80 9 24 3 109 13 180 20 263 27 1120 27 1443
-1 74 -6 89 6 35 30 -71 30 -174 157 -243 297 -39 79 -75 172 -75 192 0 4 -6
23 -14 42 -8 19 -13 35 -11 35 2 0 -1 15 -6 33 -6 17 -12 43 -15 57 -3 14 -11
57 -19 97 -8 39 -17 89 -21 110 -3 21 -8 52 -10 68 -12 68 -23 226 -29 420
-13 414 -15 475 -20 535 -3 36 -8 76 -11 90 -2 14 -7 41 -10 60 -18 117 -77
288 -129 375 -19 32 -35 59 -35 62 0 3 -27 38 -61 79 -56 69 -151 153 -224
199 -53 33 -177 95 -191 95 -28 0 -12 17 49 52 238 137 472 366 600 585 37 63
97 194 102 222 2 9 4 17 5 19 2 1 3 5 4 10 2 4 8 27 15 52 49 172 63 326 48
540 -4 52 -10 106 -12 120 -3 14 -8 39 -10 55 -6 38 -11 61 -24 103 -5 17 -7
32 -4 32 3 0 1 6 -5 13 -6 7 -13 24 -15 37 -19 102 -125 297 -226 420 -149
179 -288 276 -586 410 -25 11 -200 68 -229 75 -12 2 -68 15 -126 28 -58 14
-112 25 -120 25 -8 1 -26 3 -40 6 -46 8 -104 15 -173 21 -37 4 -77 8 -87 10
-65 13 -530 22 -548 11 -6 -3 -13 -2 -17 4 -4 6 -11 8 -16 5 -5 -4 -57 -8
-116 -11 -122 -5 -253 -12 -363 -18 -41 -3 -129 -8 -195 -12 -226 -12 -745 -6
-922 12 -24 3 -60 6 -80 8 -64 6 -156 17 -188 23 -16 2 -47 6 -68 8 -21 3 -42
7 -46 9 -5 3 -11 3 -14 -1z m2466 -1259 c48 -24 112 -98 127 -147 16 -51 20
-157 7 -212 -5 -22 -10 -49 -13 -60 -6 -30 -37 -99 -49 -107 -5 -4 -7 -8 -3
-8 9 0 -62 -124 -74 -128 -4 -2 -8 -8 -8 -13 0 -17 -110 -150 -190 -229 -81
-81 -115 -112 -200 -178 -48 -38 -55 -41 -61 -25 -7 18 -3 385 4 433 2 14 7
50 11 80 4 30 10 69 12 85 8 50 44 199 54 220 87 194 124 251 183 282 67 34
140 37 200 7z"/>
<path d="M4650 12255 c8 -10 28 -33 44 -52 37 -41 115 -174 121 -203 0 -3 11
-26 22 -53 25 -53 89 -239 97 -277 3 -14 12 -52 21 -85 9 -33 18 -69 20 -80 1
-11 8 -42 15 -70 6 -27 14 -63 16 -80 3 -16 6 -39 8 -50 2 -11 7 -42 10 -70 4
-27 9 -63 13 -80 3 -16 6 -41 8 -55 1 -14 5 -47 9 -75 28 -225 41 -418 51
-755 4 -113 8 -221 10 -240 12 -120 18 -165 32 -245 9 -49 17 -99 18 -110 2
-11 4 -21 5 -22 3 -3 3 -6 14 -53 4 -19 17 -60 28 -90 11 -30 21 -59 23 -65 3
-14 14 -41 43 -105 14 -30 26 -58 26 -62 1 -4 7 -13 14 -19 6 -7 12 -19 12
-26 0 -7 3 -13 8 -13 4 0 16 -18 26 -40 10 -22 27 -48 37 -59 11 -11 19 -23
19 -27 0 -10 16 -28 102 -114 81 -81 91 -90 160 -138 91 -63 268 -139 363
-156 17 -3 41 -8 55 -11 90 -18 153 -27 224 -32 116 -7 236 -9 236 -3 0 3 15
5 34 4 34 -1 126 10 189 22 17 4 39 7 47 8 26 4 155 48 168 59 6 5 12 6 12 3
0 -11 111 53 157 90 23 19 44 31 46 27 5 -11 0 -302 -7 -388 -12 -141 -16
-181 -21 -205 -2 -13 -7 -42 -10 -65 -4 -22 -10 -53 -15 -70 -5 -16 -17 -57
-26 -90 -22 -76 -97 -233 -129 -267 -14 -15 -25 -30 -25 -33 0 -3 -26 -30 -57
-60 -119 -112 -281 -157 -473 -132 -141 19 -244 89 -270 183 -27 95 7 209 77
256 56 39 105 48 230 44 62 -1 113 1 113 5 0 14 -117 166 -167 215 -51 51
-132 124 -138 124 -2 0 -32 16 -67 36 -146 83 -300 123 -459 118 -123 -4 -150
-7 -166 -17 -7 -5 -13 -6 -13 -3 0 3 -18 -1 -40 -9 -22 -8 -40 -12 -40 -10 0
6 -160 -64 -208 -92 -139 -80 -275 -216 -343 -343 -13 -25 -28 -48 -34 -52 -5
-4 -7 -8 -3 -8 4 0 -5 -28 -19 -62 -39 -94 -51 -165 -51 -301 0 -265 75 -505
215 -691 64 -84 183 -198 257 -246 33 -22 66 -43 71 -47 6 -5 33 -19 60 -33
28 -14 53 -29 57 -35 4 -5 8 -7 8 -3 0 4 25 -4 56 -18 83 -37 220 -81 304 -99
41 -9 82 -18 91 -20 9 -2 40 -6 70 -10 30 -4 68 -9 84 -11 179 -23 606 -17
790 12 22 3 51 8 65 9 50 5 116 17 180 31 36 8 76 17 90 19 14 3 36 10 50 14
14 5 39 13 55 17 37 9 34 8 68 22 16 7 32 12 37 12 5 0 19 4 32 9 13 5 28 10
33 11 13 4 126 55 195 88 64 31 198 109 220 129 8 7 38 30 65 50 98 73 175
149 287 282 28 33 118 176 118 187 0 7 3 14 8 16 9 4 82 153 82 168 0 5 5 10
12 10 6 0 8 3 5 7 -4 3 -3 11 1 17 5 6 19 40 31 76 12 36 26 74 31 85 12 27
69 234 76 280 1 6 3 12 4 15 4 11 14 66 25 130 3 19 8 46 10 60 7 35 22 162
30 255 11 129 14 166 21 340 4 99 7 293 7 430 -3 503 -2 1012 1 1075 12 234
17 322 21 370 3 30 8 96 11 145 3 50 8 108 9 130 2 22 6 67 9 100 3 33 8 85
11 115 3 30 10 89 15 130 5 41 12 95 15 120 5 44 10 75 20 135 3 17 8 48 11
70 4 22 10 45 15 51 5 6 7 13 4 15 -11 12 96 422 116 443 5 6 9 16 9 24 0 11
-13 13 -62 8 -69 -7 -150 -14 -243 -21 -33 -2 -96 -7 -140 -10 -111 -8 -367
-16 -510 -15 -66 0 -133 0 -150 -1 -16 0 -34 -1 -40 0 -5 0 -57 2 -115 5 -103
4 -175 10 -255 23 -22 3 -51 7 -65 9 -46 6 -94 15 -151 30 -31 8 -59 14 -61
14 -2 0 1 -33 8 -72 15 -86 26 -185 38 -343 3 -33 5 -60 6 -60 13 0 18 -681 7
-830 -4 -49 -9 -119 -12 -155 -2 -35 -7 -78 -9 -95 -3 -16 -8 -52 -11 -80 -43
-343 -169 -617 -298 -653 -104 -29 -198 24 -255 143 -27 55 -63 155 -57 155 3
0 0 12 -5 26 -6 15 -12 42 -15 61 -2 20 -7 53 -10 75 -21 140 -26 249 -25 513
1 237 3 292 14 450 9 127 17 209 32 345 7 69 12 119 19 185 3 33 8 71 10 85 2
14 6 48 10 75 3 28 7 59 9 70 2 11 7 51 11 89 l8 69 -24 -6 c-13 -3 -35 -8
-49 -11 -26 -6 -71 -14 -130 -22 -19 -3 -46 -7 -60 -9 -106 -20 -640 -27 -860
-12 -58 4 -136 9 -175 12 -38 3 -84 7 -101 10 -16 2 -57 7 -90 10 -65 7 -91
10 -144 19 -44 7 -91 13 -155 21 -49 6 -71 10 -117 20 -13 2 -43 7 -68 9 -25
3 -56 8 -70 12 -23 7 -24 6 -10 -11z"/>
<path d="M14915 12198 c-2 -13 -7 -77 -11 -143 -3 -66 -7 -142 -9 -170 -10
-153 -17 -254 -20 -285 -2 -19 -6 -77 -10 -128 -3 -51 -8 -101 -10 -112 -2
-10 -6 -56 -10 -102 -3 -46 -8 -99 -10 -118 -3 -19 -7 -66 -10 -105 -3 -38 -8
-81 -10 -95 -3 -14 -7 -54 -11 -90 -3 -36 -8 -78 -10 -95 -2 -16 -6 -55 -9
-85 -3 -30 -7 -71 -10 -90 -8 -51 -14 -98 -20 -155 -3 -27 -7 -61 -10 -75 -2
-14 -7 -50 -10 -80 -4 -30 -8 -67 -11 -82 -11 -70 -13 -88 -24 -163 -6 -44
-13 -91 -16 -105 -2 -14 -6 -43 -9 -65 -3 -22 -10 -62 -15 -90 -5 -27 -12 -68
-15 -90 -6 -44 -52 -305 -60 -345 -3 -14 -8 -38 -11 -55 -7 -42 -10 -59 -28
-150 -8 -44 -18 -95 -21 -114 -3 -19 -8 -38 -10 -41 -3 -4 -7 -25 -10 -46 -4
-22 -8 -47 -11 -56 -3 -10 -7 -30 -10 -45 -3 -16 -12 -57 -20 -93 -8 -36 -17
-76 -19 -90 -3 -14 -9 -43 -15 -65 -6 -22 -13 -51 -16 -65 -3 -14 -10 -43 -15
-64 -6 -22 -12 -49 -14 -60 -1 -12 -5 -28 -8 -36 -4 -8 -8 -26 -11 -40 -2 -14
-16 -72 -31 -130 -15 -58 -29 -112 -31 -120 -15 -65 -27 -107 -31 -120 -3 -8
-8 -22 -9 -30 -2 -8 -13 -49 -24 -90 -11 -41 -22 -84 -25 -94 -2 -10 -16 -60
-31 -110 -15 -50 -28 -98 -29 -106 -1 -8 -5 -22 -8 -30 -4 -8 -24 -76 -46
-150 -54 -187 -131 -431 -141 -449 -4 -9 -8 -19 -9 -24 -2 -17 -14 -63 -20
-72 -3 -5 -6 -13 -7 -17 -1 -5 -3 -10 -4 -13 -1 -3 -3 -8 -4 -12 -1 -5 -14
-45 -30 -90 -15 -45 -25 -87 -21 -93 3 -5 18 -8 33 -6 15 3 56 8 92 11 36 4
81 8 100 11 19 2 76 6 125 10 50 3 110 7 135 9 198 16 732 22 930 11 137 -8
274 -17 320 -21 25 -2 86 -7 135 -11 50 -3 99 -8 110 -11 11 -2 39 -6 63 -8
53 -5 53 -2 7 130 -19 55 -37 109 -40 120 -3 11 -9 31 -15 45 -5 14 -12 36
-14 50 -3 14 -5 26 -7 28 -2 3 -2 3 -19 77 -7 33 -14 69 -16 80 -1 11 -5 45
-9 75 -8 64 -8 384 0 450 3 25 7 65 10 90 18 187 99 389 188 472 30 28 80 59
102 64 100 24 134 23 204 -3 53 -19 148 -112 176 -172 11 -22 23 -41 28 -41 4
0 7 -7 7 -15 0 -9 7 -29 15 -45 26 -50 69 -210 81 -300 2 -19 7 -48 9 -65 21
-125 21 -432 0 -605 -10 -82 -43 -220 -72 -297 -24 -65 -45 -126 -63 -185 -8
-27 -8 -27 37 -22 25 2 48 6 52 8 3 2 30 7 60 11 30 4 63 9 75 11 12 3 41 7
66 10 25 2 56 7 70 9 24 4 54 8 160 20 25 3 70 8 100 11 30 2 78 6 105 9 287
26 907 26 1160 -1 46 -4 107 -10 223 -20 78 -6 82 -5 76 12 -4 11 -11 25 -17
32 -5 6 -6 12 -2 12 4 0 3 6 -2 13 -6 6 -13 24 -17 39 -3 15 -11 40 -18 55 -6
15 -12 33 -14 38 -1 6 -30 89 -63 185 -34 96 -63 182 -66 190 -2 8 -35 110
-74 225 -39 116 -71 210 -70 210 1 0 -9 29 -17 50 -4 11 -9 26 -11 33 -1 6 -5
18 -6 25 -2 6 -7 19 -10 27 -3 8 -20 62 -38 120 -17 58 -36 111 -41 118 -6 6
-8 12 -5 12 3 0 -4 28 -14 63 -11 34 -22 69 -24 78 -2 9 -11 39 -20 65 -9 27
-25 78 -35 114 -10 36 -30 106 -45 155 -25 84 -44 157 -49 180 -1 6 -4 15 -8
20 -3 6 -9 28 -13 50 -4 22 -10 45 -14 50 -3 6 -6 15 -7 20 -1 6 -21 82 -44
170 -43 167 -119 465 -126 500 -8 43 -12 61 -18 85 -3 14 -8 36 -11 50 -3 14
-14 66 -25 115 -24 104 -23 100 -56 265 -25 124 -71 362 -79 410 -2 14 -7 41
-10 60 -4 19 -8 46 -10 60 -2 14 -9 52 -15 85 -15 86 -20 116 -24 150 -2 17
-7 41 -10 55 -3 14 -8 45 -11 70 -3 25 -7 54 -9 65 -2 11 -7 45 -11 75 -3 30
-9 69 -12 85 -2 17 -6 46 -8 65 -2 19 -6 58 -9 85 -4 28 -9 68 -11 89 -3 21
-7 60 -10 85 -2 25 -7 75 -11 111 -10 105 -12 130 -19 230 -3 52 -8 113 -10
135 -6 55 -17 269 -17 328 l0 47 -36 -5 c-20 -2 -48 -7 -62 -10 -23 -5 -38 -7
-130 -20 -19 -3 -64 -8 -100 -11 -36 -3 -78 -8 -95 -9 -241 -26 -1202 -26
-1555 -1 -205 15 -478 44 -492 53 -4 2 -10 -6 -13 -19z m1219 -1570 c2 -7 8
-24 13 -38 6 -14 21 -50 33 -80 12 -30 27 -68 35 -85 34 -79 171 -460 179
-500 1 -5 4 -14 8 -20 15 -27 71 -267 73 -321 4 -82 -18 -183 -57 -254 -99
-184 -281 -218 -419 -77 -77 79 -109 183 -104 335 4 126 4 125 56 317 22 83
41 157 43 165 2 8 16 60 31 115 15 55 29 110 30 122 2 11 6 30 9 41 7 21 8 26
22 102 4 25 8 47 9 50 1 3 7 38 14 78 12 69 19 82 25 50z"/>
<path d="M4159 11766 c-2 -3 -33 -7 -67 -11 -35 -3 -71 -8 -81 -10 -22 -4 -97
-13 -166 -20 -57 -6 -131 -13 -190 -19 -22 -3 -71 -7 -110 -10 -38 -3 -101 -9
-140 -12 -38 -3 -95 -8 -125 -9 -225 -14 -297 -17 -385 -20 -55 -2 -107 -4
-115 -4 -13 -1 -15 -36 -16 -254 0 -138 -4 -288 -8 -332 -13 -147 -18 -200
-21 -240 -2 -22 -6 -67 -10 -100 -4 -33 -7 -68 -7 -77 1 -25 -60 -35 -346 -53
-45 -3 -96 -7 -112 -9 -17 -2 -30 -1 -30 3 0 3 9 42 21 86 11 44 21 87 23 95
7 27 44 163 66 240 29 101 101 323 109 335 4 6 13 28 20 50 7 22 24 64 37 93
36 80 36 80 -53 75 -119 -6 -1222 -8 -1275 -2 -27 3 -49 3 -49 0 -1 -3 -2 -55
-4 -116 -3 -108 -10 -288 -20 -475 -4 -93 -8 -150 -21 -300 -4 -41 -6 -83 -6
-93 1 -16 -6 -18 -49 -15 -27 1 -49 -1 -49 -5 0 -5 -4 -6 -8 -3 -4 3 -60 8
-123 11 -157 8 -351 25 -416 36 -26 4 -30 -6 -31 -98 -2 -162 -14 -362 -26
-450 -3 -21 -8 -58 -11 -83 -9 -75 -19 -136 -36 -210 -6 -25 -13 -60 -15 -78
-2 -17 -14 -71 -25 -120 -11 -48 -23 -98 -25 -111 -3 -14 -7 -28 -10 -33 -3
-5 -8 -21 -10 -36 -3 -15 -14 -56 -25 -91 -24 -79 -24 -83 4 -71 12 6 51 17
87 25 36 9 72 17 80 19 8 2 26 7 40 10 14 3 66 15 115 27 50 11 101 23 115 25
14 3 32 7 40 9 8 3 33 7 55 11 22 3 43 8 46 10 4 2 32 6 64 9 51 5 56 4 51
-12 -3 -10 -8 -47 -11 -83 -3 -36 -20 -141 -36 -235 -17 -93 -34 -192 -38
-220 -5 -27 -10 -52 -12 -55 -5 -6 -107 -4 -204 4 -128 10 -200 18 -205 21 -3
2 -23 6 -45 9 -22 4 -52 9 -67 11 -16 3 -29 2 -30 -2 0 -5 -2 -19 -3 -33 -2
-14 -6 -45 -9 -70 -4 -25 -9 -65 -11 -90 -2 -25 -4 -45 -5 -45 -1 0 -3 -16 -5
-35 -2 -19 -6 -48 -9 -65 -2 -16 -7 -50 -11 -75 -13 -86 -16 -105 -20 -120 -2
-8 -6 -35 -9 -60 -3 -25 -8 -56 -11 -70 -3 -14 -7 -38 -10 -55 -2 -16 -7 -41
-9 -55 -11 -49 -16 -75 -21 -105 -5 -30 -9 -52 -21 -110 -13 -65 -48 -205 -75
-304 -16 -57 -28 -106 -26 -108 2 -1 39 9 83 23 43 14 86 28 94 30 8 2 74 19
145 39 72 20 141 38 155 41 14 3 42 9 63 14 l38 8 -5 -31 c-7 -46 -13 -74 -36
-163 -12 -43 -23 -90 -26 -103 -3 -14 -7 -28 -10 -32 -4 -7 -58 -188 -69 -229
-2 -8 -11 -35 -19 -59 -9 -24 -16 -44 -16 -46 0 -1 26 2 58 6 60 9 132 16 222
24 30 3 64 7 75 9 11 2 65 7 120 11 55 4 120 9 145 11 236 20 525 28 755 21
l50 -2 0 338 c0 293 2 337 15 338 17 0 359 0 378 -1 13 0 10 -30 -9 -105 -11
-41 -14 -55 -25 -115 -4 -19 -11 -41 -17 -47 -5 -7 -7 -13 -4 -13 8 0 -109
-425 -138 -503 -7 -15 -2 -17 36 -13 147 16 183 19 364 31 180 12 276 15 605
19 184 3 358 1 386 -3 l51 -7 -3 31 c-1 16 -5 62 -9 100 -8 82 -14 554 -8 572
3 7 8 11 13 8 4 -2 27 -7 51 -10 24 -3 71 -10 104 -16 65 -12 65 -12 110 -22
44 -10 87 -18 116 -22 14 -3 46 -11 70 -19 24 -8 58 -17 76 -21 l31 -6 2 83
c3 151 11 287 25 388 2 19 7 60 10 90 4 30 9 66 11 80 3 14 7 41 9 60 2 19 7
51 10 70 4 19 8 46 10 60 1 14 5 39 8 55 4 17 8 46 11 65 5 30 47 238 61 295
3 11 7 29 9 40 3 11 16 62 30 113 28 99 31 127 17 118 -8 -5 -104 -28 -181
-42 -14 -3 -45 -10 -70 -15 -53 -13 -59 -14 -175 -33 -112 -18 -161 -26 -203
-32 l-34 -4 6 71 c8 96 22 204 26 204 1 0 3 18 4 40 2 22 6 56 10 75 18 101
27 153 30 185 1 11 6 34 10 51 l7 31 97 -3 c127 -3 312 -14 343 -19 13 -2 47
-6 74 -9 l51 -6 1 38 c2 65 13 194 24 277 16 125 19 144 34 245 8 52 17 113
20 135 2 22 7 51 10 65 2 13 7 42 10 65 3 22 8 47 10 55 2 8 6 31 9 50 3 19 8
45 10 56 2 12 7 37 10 55 3 19 8 45 11 59 3 14 8 39 11 55 12 70 37 171 46
188 13 24 -12 32 -57 17 -20 -7 -42 -13 -48 -14 -7 -2 -19 -6 -27 -9 -15 -5
-61 -17 -90 -23 -8 -1 -77 -16 -152 -33 -75 -17 -143 -32 -150 -33 -17 -4 -14
29 11 110 5 17 7 32 4 32 -3 0 -1 6 5 13 5 6 13 28 17 47 4 19 16 64 27 100
11 36 21 74 24 85 2 12 12 46 23 78 11 31 17 57 14 57 -3 0 -1 6 5 13 5 6 13
28 17 47 4 19 10 40 13 45 4 6 7 15 8 20 1 6 19 57 39 115 20 58 38 110 39
115 2 6 6 17 9 25 3 8 15 39 26 68 l19 52 -27 0 c-15 0 -30 -2 -32 -4z m-1609
-2262 c0 -8 -9 -75 -20 -147 -12 -73 -23 -147 -25 -164 -3 -18 -8 -50 -11 -70
-3 -21 -7 -52 -9 -70 -2 -17 -8 -57 -14 -90 -12 -65 -24 -151 -24 -170 0 -7
-12 -14 -26 -14 -14 -1 -39 -3 -56 -4 -32 -4 -151 -11 -322 -20 -57 -3 -103
-3 -103 0 0 3 6 49 14 103 8 53 17 115 21 137 3 23 7 52 10 65 2 13 7 44 10
69 3 25 7 55 9 66 2 11 7 43 10 70 4 28 9 64 11 80 6 37 16 106 17 122 1 6 8
11 17 11 9 0 43 3 76 6 122 13 142 15 235 22 52 3 96 7 97 8 1 0 20 2 42 3 31
2 41 -1 41 -13z"/>
</g>
</svg>
